# 3ds Max Wavefront OBJ Exporter v0.97b - (c)2007 guruware
# File Created: 02.08.2017 21:59:16

mtllib left_upper_arm.mtl

#
# object sub01
#

v  6.2842 10.9399 -2.4356
v  5.5362 10.5476 -1.6108
v  5.6870 10.4005 -1.6555
v  6.3343 10.7255 -2.3979
v  5.7681 10.3299 -1.6933
v  5.9253 10.2674 -1.7692
v  6.2505 10.4418 -2.1201
v  6.3257 10.5730 -2.3273
v  6.1476 11.1672 -2.4474
v  6.1238 11.2005 -2.4466
v  6.0831 11.2358 -2.4278
v  6.7116 12.3567 -2.5489
v  6.5088 12.3642 -2.3210
v  6.3957 12.2902 -2.4754
v  6.3116 10.5388 -2.3694
v  6.3205 10.6914 -2.4397
v  6.1652 10.3451 -2.0130
v  6.1056 10.2491 -2.0696
v  6.2190 10.3563 -2.2121
v  6.0642 10.2840 -1.8976
v  5.8755 10.2085 -1.8475
v  6.0272 10.2058 -2.0022
v  5.6337 10.3703 -1.6874
v  5.7228 10.2949 -1.7503
v  5.5690 10.3210 -1.8871
v  6.0707 11.2029 -2.4887
v  6.0434 11.2196 -2.4957
v  6.1681 11.1170 -2.4563
v  6.1611 11.0770 -2.5041
v  6.1050 11.1415 -2.5100
v  6.2197 11.0673 -2.4501
v  6.2267 10.9510 -2.5092
v  6.1922 11.0381 -2.5116
v  5.8204 11.0033 -2.5866
v  6.2327 10.4093 -2.5128
v  6.0509 10.2175 -2.2351
v  6.1310 10.2562 -2.3536
v  5.6670 10.2226 -1.9196
v  5.9892 10.0541 -2.4057
v  5.9638 10.2038 -2.1664
v  5.8788 10.1070 -2.3461
v  6.0726 10.1096 -2.5161
v  5.9947 9.8708 -2.5788
v  6.0095 11.2493 -2.4832
v  6.2305 12.2975 -2.3406
v  6.1700 12.2401 -2.5089
v  8.5828 1.4584 -3.6349
v  8.6668 3.3220 -3.5525
v  9.0245 2.3688 -3.6787
v  9.1295 1.5542 -3.7330
v  8.3393 5.8152 -2.5171
v  8.8216 3.3137 -3.0210
v  8.2409 5.8104 -2.9622
v  9.1666 0.2295 -3.8174
v  9.5702 -0.0002 -3.6688
v  9.3042 -0.1913 -3.7419
v  9.0774 0.5702 -3.2519
v  9.0911 0.1110 -2.9491
v  9.6159 0.2984 -2.9077
v  9.5701 0.6544 -3.1104
v  10.4876 0.6788 -3.1022
v  10.6775 0.5448 -3.4080
v  10.6065 0.8452 -3.4484
v  5.5904 10.8910 -1.0269
v  5.6499 11.1836 -1.5549
v  5.5515 10.5827 -1.9231
v  9.9513 0.0355 -3.1171
v  9.6868 -0.0717 -3.0012
v  9.7970 -0.1742 -3.3087
v  10.0139 -0.0617 -3.3403
v  6.3820 11.5188 -1.2980
v  6.5894 11.5021 -1.2760
v  6.1998 11.4451 -1.7786
v  6.1434 11.5165 -1.4812
v  10.1867 0.7713 -3.0495
v  9.8662 1.2639 -3.3648
v  8.6704 0.1297 -3.2560
v  8.4076 0.1172 -3.3434
v  8.2967 0.1214 -3.7949
v  6.1574 10.4896 -2.2622
v  7.4731 8.6834 -2.3101
v  7.2046 8.6486 -2.3917
v  8.3186 3.1682 -2.8964
v  8.8086 1.4667 -3.1713
v  9.0630 1.5480 -3.0259
v  8.6410 3.2150 -2.7367
v  10.6411 0.3307 -3.5422
v  10.5286 0.2244 -3.1977
v  10.4144 -0.0144 -3.4115
v  9.0286 0.9195 -3.7349
v  8.9430 0.8009 -3.7650
v  8.6948 0.6507 -3.2335
v  8.4793 0.6703 -3.4112
v  7.4100 10.6899 -1.8299
v  7.1465 10.5286 -2.0569
v  7.0624 10.9519 -2.1240
v  7.4855 10.5645 -1.3299
v  7.4655 11.0413 -1.5363
v  5.8346 11.3470 -1.3618
v  9.3960 0.9706 -3.1405
v  9.6669 1.7184 -3.3780
v  9.4481 1.0413 -3.7530
v  9.5264 1.6623 -3.7513
v  8.8238 0.5386 -3.8070
v  8.1424 3.1722 -3.0956
v  7.5673 5.6187 -2.5171
v  7.5888 5.6569 -2.7763
v  8.1301 3.2144 -3.2591
v  6.0779 10.8518 -0.5506
v  6.9850 11.1450 -0.7125
v  6.7502 11.3403 -0.9350
v  6.9635 8.4331 -1.5032
v  7.3169 8.5011 -1.4473
v  7.0844 9.8114 -1.1639
v  8.3847 -0.1277 -3.7607
v  8.7727 -0.1984 -3.3707
v  8.3628 -0.0731 -3.6814
v  6.0796 11.4093 -1.1805
v  6.1154 11.1489 -0.7314
v  10.0866 0.8343 -3.9190
v  10.0937 0.3927 -3.9036
v  9.9659 0.3623 -3.9674
v  6.1256 11.3208 -0.9493
v  5.5494 10.5517 -1.0003
v  9.0353 0.8053 -3.1224
v  9.5699 -0.1641 -3.4901
v  9.6820 0.2366 -3.7608
v  7.7688 5.6164 -2.3194
v  8.0423 5.6463 -2.1461
v  6.6962 11.1033 -0.7012
v  6.4420 10.1316 -0.5899
v  6.6724 9.6735 -0.9913
v  6.9785 10.4980 -0.8708
v  8.5760 1.0717 -3.6714
v  7.0121 11.3692 -1.5182
v  7.4170 11.0401 -1.2281
v  9.1484 -0.2850 -3.0341
v  9.6329 0.3594 -3.7324
v  9.8522 0.7504 -3.9201
v  6.7720 8.5219 -2.0958
v  6.7732 8.4411 -1.7273
v  10.4909 0.0306 -3.0622
v  10.3178 0.0098 -3.5060
v  10.1721 0.0260 -3.5721
v  10.3694 0.4939 -3.7953
v  8.4793 0.7391 -3.7152
v  10.3007 0.4233 -2.7433
v  10.5063 0.4719 -2.8803
v  10.2937 0.9817 -3.8233
v  10.2186 1.3793 -3.7506
v  8.0350 5.7728 -3.0753
v  9.9204 1.8197 -3.7196
v  6.5633 10.6596 -2.2293
v  6.8593 8.4179 -1.5791
v  8.9506 -0.1630 -3.6944
v  8.8875 -0.2623 -3.4986
v  6.4231 10.9991 -2.3092
v  6.0055 10.8507 -2.2711
v  9.9201 1.8806 -3.6011
v  10.2741 1.3954 -3.6314
v  10.0487 -0.0678 -3.6757
v  9.7675 -0.1217 -3.5347
v  5.8810 10.1722 -2.0426
v  9.0347 3.4112 -3.4139
v  8.5317 1.0142 -3.4412
v  8.5023 1.4408 -3.5002
v  8.7554 0.8346 -3.2414
v  6.9376 11.4382 -1.3396
v  7.6863 8.6751 -1.8886
v  6.3393 9.6729 -1.2736
v  8.3958 -0.0811 -3.8179
v  9.9761 1.1884 -3.8789
v  7.5030 9.9057 -1.5449
v  6.1594 10.1678 -0.8019
v  5.8956 10.1550 -0.9990
v  9.6056 -0.1614 -3.8808
v  9.6435 0.0036 -4.0033
v  9.2552 0.0488 -3.9744
v  9.2005 0.5905 -3.9812
v  9.5810 0.4074 -3.8971
v  9.5522 0.5988 -4.1203
v  9.3293 0.6040 -4.1693
v  9.0885 0.3455 -4.3548
v  8.9631 0.0646 -4.0995
v  9.0287 -0.3072 -3.9484
v  9.2283 -0.2701 -3.8631
v  8.9993 0.2224 -4.1290
v  10.0785 0.3694 -4.1713
v  9.2287 0.1623 -3.9824
v  10.0356 0.0669 -4.0796
v  10.5076 0.2175 -3.1969
v  10.5472 0.0391 -3.1443
v  10.5719 -0.0429 -3.5231
v  9.9901 -0.2248 -3.7186
v  9.9579 -0.0329 -3.8086
v  10.3439 -0.0635 -3.7866
v  9.6007 0.0410 -3.3712
v  9.8658 0.2020 -3.0713
v  9.7649 0.1845 -3.4051
v  9.9028 0.2178 -3.1457
v  10.3165 0.0685 -3.8094
v  10.0061 0.0931 -3.6810
v  10.4991 0.1093 -3.5562
v  9.7809 -0.2234 -3.5852
v  9.6467 -0.1438 -3.3516
v  9.7098 -0.0032 -3.6431
v  10.2107 0.2256 -3.0446
v  9.8379 0.1063 -3.5881
v  9.8617 -0.0102 -2.9851
v  10.2088 -0.0027 -2.9330
v  10.1648 0.1067 -3.6891
v  9.9131 -0.2033 -3.0090
v  10.1844 -0.1936 -3.0165
# 213 vertices

vn 0.9286 0.2798 -0.2438
vn 0.4750 0.2288 0.8497
vn 0.2579 -0.1227 0.9584
vn 0.9710 0.1706 0.1676
vn 0.2962 -0.3183 0.9005
vn 0.4824 -0.2973 0.8239
vn 0.8127 0.2184 0.5401
vn 0.9571 -0.0194 0.2891
vn 0.6650 0.4690 -0.5812
vn 0.7529 0.6514 -0.0938
vn 0.5030 0.7529 -0.4245
vn 0.2562 -0.9314 0.2587
vn 0.2359 -0.9323 0.2740
vn 0.2124 -0.9371 0.2770
vn 0.9366 -0.3199 -0.1426
vn 0.9465 -0.0647 -0.3163
vn 0.8228 -0.2715 0.4993
vn 0.6532 -0.7475 0.1207
vn 0.8101 -0.5835 0.0582
vn 0.7009 -0.3277 0.6335
vn 0.1281 -0.8574 0.4984
vn 0.5091 -0.8234 0.2505
vn -0.2795 -0.6737 0.6841
vn -0.2611 -0.8178 0.5129
vn -0.5096 -0.7448 0.4308
vn 0.5354 0.6449 -0.5454
vn 0.5079 0.7223 -0.4693
vn 0.6508 0.4972 -0.5738
vn 0.5550 0.4706 -0.6859
vn 0.4899 0.3580 -0.7949
vn 0.7048 0.4510 -0.5476
vn 0.7876 0.2529 -0.5618
vn 0.7279 0.4335 -0.5313
vn 0.2143 0.0975 -0.9719
vn 0.8798 -0.4587 -0.1249
vn 0.5728 -0.7908 0.2156
vn 0.7371 -0.6610 0.1408
vn -0.4045 -0.7853 0.4687
vn 0.6259 -0.6489 0.4325
vn 0.2188 -0.9508 0.2195
vn -0.1271 -0.8469 0.5163
vn 0.7925 -0.5021 0.3463
vn 0.8199 -0.3799 0.4284
vn 0.4830 0.7450 -0.4601
vn 0.1839 -0.9433 0.2765
vn 0.1719 -0.9496 0.2621
vn -0.5552 0.0315 -0.8311
vn -0.1197 0.1699 -0.9782
vn -0.0784 0.0949 -0.9924
vn -0.1125 0.0334 -0.9931
vn 0.9596 0.1661 0.2271
vn 0.8128 0.1722 0.5566
vn 0.7501 0.3166 -0.5806
vn 0.1295 -0.0557 -0.9900
vn 0.5158 -0.4204 -0.7465
vn 0.4303 -0.2694 -0.8615
vn -0.0924 0.0781 0.9927
vn -0.2978 0.0408 0.9538
vn -0.1222 0.0732 0.9898
vn -0.1465 0.3354 0.9306
vn 0.6657 0.5295 0.5257
vn 0.9977 0.0675 -0.0110
vn 0.8911 0.4536 0.0155
vn -0.8493 0.3638 0.3825
vn -0.8010 0.5800 -0.1486
vn -0.8098 0.1654 -0.5629
vn 0.1903 -0.7315 0.6548
vn 0.3045 -0.3540 0.8843
vn 0.3692 -0.9198 0.1327
vn 0.3073 -0.9342 0.1812
vn -0.0034 0.9845 0.1753
vn 0.1114 0.9858 0.1259
vn -0.1665 0.8684 -0.4671
vn -0.2480 0.9656 -0.0788
vn 0.1284 0.6665 0.7344
vn 0.3268 0.3607 0.8735
vn -0.5488 -0.2769 0.7888
vn -0.6132 -0.5945 0.5202
vn -0.8660 -0.0058 -0.5000
vn -0.2096 -0.0915 -0.9735
vn 0.6115 0.2741 -0.7422
vn -0.1289 0.0979 -0.9868
vn -0.5721 -0.2978 0.7642
vn -0.5701 -0.1609 0.8057
vn 0.0486 -0.0688 0.9964
vn 0.2860 -0.1219 0.9504
vn 0.8633 -0.2811 -0.4191
vn 0.9669 -0.2209 0.1277
vn 0.5067 -0.8294 -0.2352
vn -0.0522 0.1183 -0.9916
vn 0.0113 0.1894 -0.9818
vn -0.4314 0.1383 0.8915
vn -0.8600 0.2063 0.4668
vn 0.8548 0.0658 -0.5149
vn 0.5571 0.0348 -0.8297
vn 0.4564 0.3888 -0.8003
vn 0.9298 -0.0520 0.3645
vn 0.8594 0.4806 -0.1747
vn -0.7013 0.6682 0.2484
vn 0.2130 0.0939 0.9725
vn 0.5142 0.1578 0.8430
vn -0.1499 0.0315 -0.9882
vn -0.0506 0.1004 -0.9937
vn -0.0432 0.1291 -0.9907
vn -0.8977 -0.2872 0.3342
vn -0.8990 -0.3177 0.3013
vn -0.8447 -0.1017 -0.5255
vn -0.8605 -0.1087 -0.4978
vn -0.2995 0.1621 0.9402
vn 0.4513 -0.0435 0.8913
vn 0.1222 0.8421 0.5253
vn -0.2868 -0.3495 0.8920
vn 0.3555 -0.1606 0.9208
vn 0.5550 -0.2029 0.8067
vn -0.5583 -0.7932 -0.2431
vn -0.5309 -0.7321 0.4268
vn -0.8312 -0.3946 0.3916
vn -0.3453 0.8720 0.3469
vn -0.2663 0.6316 0.7281
vn 0.2061 0.0835 -0.9750
vn 0.4816 -0.2640 -0.8357
vn -0.0256 -0.2620 -0.9647
vn -0.3248 0.8003 0.5041
vn -0.8355 -0.0584 0.5464
vn -0.1634 -0.2179 0.9622
vn 0.3024 -0.7393 -0.6017
vn -0.4365 -0.2795 -0.8552
vn -0.5654 -0.3370 0.7528
vn 0.1966 -0.1912 0.9617
vn 0.5293 -0.8384 0.1299
vn -0.0107 -0.4286 0.9034
vn 0.0020 -0.5021 0.8648
vn 0.5855 -0.1141 0.8026
vn -0.6382 0.1461 -0.7559
vn 0.4235 0.8591 -0.2875
vn 0.8136 0.3860 0.4348
vn -0.3491 -0.3791 0.8570
vn -0.2455 -0.0834 -0.9658
vn -0.2773 0.0294 -0.9603
vn -0.7496 -0.1820 -0.6363
vn -0.9284 -0.3159 0.1955
vn 0.6049 -0.6900 0.3975
vn 0.2425 -0.7889 -0.5646
vn 0.4624 -0.7449 -0.4810
vn 0.5721 -0.1621 -0.8040
vn -0.7283 0.2748 -0.6277
vn 0.1459 0.0450 0.9883
vn 0.7705 0.2386 0.5910
vn 0.5803 0.1692 -0.7966
vn 0.6036 0.3659 -0.7083
vn -0.0820 0.2006 -0.9762
vn 0.4839 0.4374 -0.7580
vn 0.1647 -0.0244 -0.9860
vn -0.6303 -0.3936 0.6692
vn 0.0866 -0.6445 -0.7597
vn -0.2387 -0.9696 -0.0548
vn 0.0477 0.3693 -0.9281
vn -0.4063 0.2463 -0.8799
vn 0.8305 0.4619 0.3113
vn 0.8118 0.5500 0.1963
vn 0.3313 -0.7785 -0.5331
vn -0.0270 -0.8335 -0.5519
vn -0.4811 -0.1997 -0.8536
vn 0.8276 0.4503 -0.3352
vn -0.9228 0.0884 0.3750
vn -0.9940 -0.0870 0.0656
vn -0.5089 0.0821 0.8569
vn 0.3692 0.9289 0.0272
vn 0.9809 0.1561 0.1163
vn -0.5184 -0.5796 0.6288
vn -0.3426 -0.4155 -0.8426
vn 0.0473 0.1816 -0.9822
vn 0.9810 0.0104 0.1939
vn -0.5059 -0.5392 0.6733
vn -0.4801 -0.5558 0.6787
vn 0.0526 0.4781 0.8767
vn 0.2106 0.1155 0.9707
vn -0.2159 0.1458 0.9655
vn -0.4834 0.6938 0.5338
vn 0.2191 0.2713 0.9372
vn 0.2529 0.8161 0.5197
vn -0.2654 0.9575 -0.1130
vn -0.8285 0.5322 -0.1744
vn -0.5716 0.2588 0.7787
vn -0.3951 0.3144 0.8632
vn -0.2715 0.3375 0.9013
vn -0.9166 0.2718 0.2934
vn 0.3575 0.2516 0.8994
vn -0.3625 0.0101 0.9319
vn 0.1420 0.2687 0.9527
vn 0.5534 0.8054 0.2122
vn 0.7997 0.3362 0.4974
vn 0.8968 0.2893 -0.3347
vn -0.2780 -0.4457 -0.8509
vn -0.3093 0.1190 -0.9435
vn 0.4290 -0.1115 -0.8964
vn -0.9656 0.2569 0.0411
vn -0.4285 0.7038 0.5666
vn -0.2880 0.9339 -0.2117
vn -0.0973 0.9946 -0.0368
vn 0.2902 0.5128 -0.8080
vn -0.1789 0.8523 -0.4914
vn 0.5939 0.7126 -0.3735
vn -0.6932 -0.3998 -0.5997
vn -0.9627 -0.2655 0.0530
vn -0.7351 0.1868 -0.6518
vn 0.1221 0.8495 0.5133
vn -0.2235 0.8637 -0.4517
vn -0.4042 0.1585 0.9008
vn 0.0778 0.1926 0.9782
vn -0.0303 0.9580 -0.2853
vn -0.0834 -0.2432 0.9664
vn 0.0397 -0.4047 0.9136
# 213 vertex normals

o sub01
g sub01
usemtl Bones___Vray01
s 1
f 1//1 2//2 3//3 
f 3//3 4//4 1//1 
f 3//3 5//5 4//4 
f 6//6 7//7 8//8 
f 9//9 10//10 11//11 
f 12//12 13//13 14//14 
f 8//8 15//15 16//16 
f 16//16 4//4 8//8 
f 17//17 18//18 19//19 
f 17//17 20//20 18//18 
f 19//19 7//7 17//17 
f 21//21 22//22 20//20 
f 20//20 6//6 21//21 
f 23//23 24//24 5//5 
f 23//23 25//25 24//24 
f 5//5 3//3 23//23 
f 26//26 27//27 11//11 
f 10//10 26//26 11//11 
f 28//28 29//29 30//30 
f 28//28 31//31 29//29 
f 28//28 30//30 9//9 
f 31//31 1//1 32//32 
f 32//32 33//33 31//31 
f 30//30 29//29 34//34 
f 16//16 15//15 35//35 
f 19//19 18//18 36//36 
f 19//19 36//36 37//37 
f 38//38 24//24 25//25 
f 39//39 36//36 40//40 
f 40//40 41//41 39//39 
f 37//37 36//36 39//39 
f 42//42 37//37 39//39 
f 42//42 39//39 43//43 
f 21//21 24//24 38//38 
f 21//21 6//6 24//24 
f 22//22 36//36 18//18 
f 22//22 40//40 36//36 
f 35//35 15//15 19//19 
f 19//19 37//37 35//35 
f 31//31 33//33 29//29 
f 9//9 30//30 26//26 
f 9//9 26//26 10//10 
f 11//11 27//27 44//44 
f 23//23 3//3 2//2 
f 6//6 5//5 24//24 
f 18//18 20//20 22//22 
f 8//8 7//7 19//19 
f 15//15 8//8 19//19 
f 16//16 32//32 1//1 
f 1//1 4//4 16//16 
f 45//45 14//14 13//13 
f 45//45 46//46 14//14 
f 7//7 6//6 20//20 
f 20//20 17//17 7//7 
f 8//8 4//4 5//5 
f 5//5 6//6 8//8 
f 47//47 48//48 49//49 
f 49//49 50//50 47//47 
f 51//51 52//52 53//53 
f 54//54 55//55 56//56 
f 57//57 58//58 59//59 
f 59//59 60//60 57//57 
s 2
f 61//61 62//62 63//63 
s 1
f 64//64 65//65 66//66 
s 4
f 67//67 68//68 69//69 
f 69//69 70//70 67//67 
s 1
f 71//71 72//72 73//73 
f 74//74 71//71 73//73 
f 60//60 75//75 76//76 
s 4
f 67//67 59//59 68//68 
s off
f 77//77 78//78 79//79 
s 1
f 80//80 81//81 82//82 
f 83//83 84//84 85//85 
f 83//83 85//85 86//86 
s 2
f 87//87 88//88 89//89 
s 1
f 90//90 54//54 91//91 
f 92//92 93//93 78//78 
f 94//94 95//95 96//96 
f 97//97 94//94 98//98 
f 73//73 65//65 99//99 
f 99//99 74//74 73//73 
f 85//85 100//100 101//101 
f 102//102 90//90 50//50 
f 103//103 102//102 50//50 
f 91//91 54//54 104//104 
f 105//105 106//106 107//107 
f 107//107 108//108 105//105 
f 109//109 110//110 111//111 
f 112//112 113//113 114//114 
f 115//115 116//116 117//117 
f 118//118 71//71 74//74 
f 109//109 119//119 64//64 
f 120//120 121//121 122//122 
f 99//99 65//65 123//123 
f 124//124 64//64 66//66 
f 60//60 100//100 125//125 
s 2
f 126//126 55//55 127//127 
s 1
f 79//79 117//117 77//77 
f 128//128 83//83 86//86 
f 86//86 129//129 128//128 
s off
f 109//109 130//130 110//110 
s 1
f 113//113 112//112 128//128 
f 115//115 117//117 79//79 
f 92//92 57//57 125//125 
f 131//131 132//132 133//133 
f 98//98 94//94 96//96 
f 90//90 91//91 134//134 
f 135//135 98//98 96//96 
f 136//136 130//130 133//133 
f 97//97 136//136 133//133 
f 77//77 116//116 137//137 
f 138//138 102//102 139//139 
f 140//140 107//107 106//106 
f 106//106 141//141 140//140 
f 85//85 101//101 52//52 
s 2
f 89//89 88//88 142//142 
s 1
f 143//143 144//144 145//145 
f 93//93 146//146 79//79 
f 60//60 147//147 75//75 
f 123//123 72//72 71//71 
f 138//138 139//139 122//122 
f 122//122 127//127 138//138 
f 61//61 75//75 147//147 
f 147//147 148//148 61//61 
f 63//63 149//149 150//150 
f 138//138 127//127 55//55 
f 82//82 151//151 107//107 
f 107//107 140//140 82//82 
f 49//49 48//48 152//152 
f 152//152 103//103 49//49 
f 81//81 153//153 95//95 
f 106//106 154//154 141//141 
f 155//155 156//156 115//115 
f 76//76 75//75 63//63 
f 73//73 157//157 158//158 
f 152//152 159//159 160//160 
f 160//160 150//150 152//152 
s 4
f 161//161 70//70 69//69 
s 1
f 63//63 75//75 61//61 
s 4
f 69//69 126//126 162//162 
f 89//89 70//70 144//144 
f 144//144 143//143 89//89 
s 1
f 163//163 80//80 82//82 
f 82//82 140//140 163//163 
f 164//164 52//52 159//159 
f 112//112 154//154 128//128 
f 127//127 122//122 161//161 
f 161//161 162//162 127//127 
f 134//134 165//165 166//166 
f 166//166 47//47 134//134 
f 64//64 123//123 65//65 
s 4
f 161//161 69//69 162//162 
s 1
f 167//167 84//84 165//165 
f 167//167 165//165 93//93 
f 92//92 167//167 93//93 
f 168//168 111//111 110//110 
f 63//63 160//160 76//76 
s 4
f 58//58 137//137 68//68 
f 68//68 59//59 58//58 
s 1
f 138//138 55//55 54//54 
f 81//81 169//169 51//51 
f 132//132 170//170 154//154 
f 154//154 112//112 132//132 
f 48//48 164//164 152//152 
f 151//151 48//48 108//108 
f 108//108 107//107 151//151 
f 104//104 54//54 171//171 
f 104//104 171//171 79//79 
f 160//160 63//63 150//150 
f 125//125 85//85 84//84 
f 125//125 84//84 167//167 
s 2
f 56//56 55//55 126//126 
s 1
f 123//123 71//71 118//118 
f 111//111 72//72 123//123 
f 93//93 79//79 78//78 
f 50//50 49//49 103//103 
f 86//86 85//85 52//52 
f 47//47 166//166 105//105 
f 81//81 53//53 82//82 
f 138//138 54//54 102//102 
f 152//152 172//172 103//103 
s 2
f 62//62 88//88 87//87 
s 1
f 163//163 66//66 158//158 
f 163//163 158//158 80//80 
f 146//146 134//134 91//91 
f 104//104 146//146 91//91 
f 73//73 135//135 96//96 
f 73//73 72//72 135//135 
f 73//73 96//96 157//157 
f 132//132 114//114 133//133 
f 50//50 90//90 47//47 
f 162//162 126//126 127//127 
s 4
f 161//161 144//144 70//70 
s 1
f 173//173 113//113 169//169 
f 53//53 164//164 151//151 
s 4
f 142//142 70//70 89//89 
s 1
f 139//139 172//172 120//120 
f 146//146 93//93 165//165 
f 165//165 134//134 146//146 
f 72//72 111//111 168//168 
f 158//158 157//157 153//153 
f 122//122 139//139 120//120 
f 135//135 168//168 136//136 
f 135//135 136//136 98//98 
f 74//74 99//99 118//118 
f 92//92 58//58 57//57 
f 116//116 77//77 117//117 
f 95//95 94//94 173//173 
f 156//156 137//137 116//116 
f 105//105 166//166 84//84 
f 105//105 84//84 83//83 
f 92//92 77//77 58//58 
f 130//130 131//131 133//133 
f 72//72 168//168 135//135 
f 98//98 136//136 97//97 
f 153//153 80//80 158//158 
f 78//78 77//77 92//92 
s 4
f 147//147 67//67 142//142 
s 1
f 139//139 102//102 172//172 
s 4
f 142//142 67//67 70//70 
s 1
f 164//164 48//48 151//151 
f 109//109 111//111 119//119 
f 173//173 114//114 113//113 
f 89//89 143//143 87//87 
f 161//161 122//122 121//121 
f 144//144 161//161 121//121 
s off
f 142//142 148//148 147//147 
s 1
f 76//76 100//100 60//60 
f 123//123 118//118 99//99 
f 172//172 150//150 149//149 
f 149//149 120//120 172//172 
f 65//65 158//158 66//66 
s 2
f 62//62 61//61 88//88 
s 1
f 152//152 150//150 172//172 
f 145//145 149//149 63//63 
f 63//63 62//62 145//145 
f 53//53 151//151 82//82 
f 48//48 47//47 108//108 
f 108//108 47//47 105//105 
f 52//52 164//164 53//53 
f 54//54 155//155 171//171 
f 62//62 87//87 145//145 
f 125//125 100//100 85//85 
f 119//119 111//111 123//123 
f 97//97 133//133 114//114 
f 173//173 97//97 114//114 
f 131//131 130//130 109//109 
f 123//123 64//64 119//119 
s 4
f 67//67 147//147 59//59 
s 1
f 156//156 116//116 115//115 
f 52//52 51//51 129//129 
f 129//129 86//86 52//52 
f 80//80 153//153 81//81 
f 131//131 109//109 174//174 
f 53//53 81//81 51//51 
f 90//90 102//102 54//54 
s off
f 130//130 136//136 110//110 
s 1
f 136//136 168//168 110//110 
f 120//120 149//149 145//145 
f 145//145 121//121 120//120 
f 174//174 170//170 132//132 
f 132//132 131//131 174//174 
f 100//100 76//76 101//101 
s 2
f 148//148 142//142 88//88 
f 148//148 88//88 61//61 
s 1
f 172//172 102//102 103//103 
f 128//128 106//106 105//105 
f 83//83 128//128 105//105 
f 159//159 152//152 164//164 
f 132//132 112//112 114//114 
f 79//79 146//146 104//104 
f 76//76 160//160 159//159 
f 76//76 159//159 101//101 
f 109//109 64//64 124//124 
f 166//166 165//165 84//84 
f 170//170 174//174 175//175 
f 158//158 65//65 73//73 
f 60//60 125//125 57//57 
f 87//87 143//143 145//145 
f 115//115 171//171 155//155 
f 106//106 128//128 154//154 
f 159//159 52//52 101//101 
f 113//113 128//128 129//129 
f 79//79 171//171 115//115 
f 92//92 125//125 167//167 
f 97//97 173//173 94//94 
f 174//174 109//109 124//124 
f 174//174 124//124 175//175 
f 134//134 47//47 90//90 
f 153//153 157//157 96//96 
f 96//96 95//95 153//153 
f 60//60 59//59 147//147 
f 77//77 137//137 58//58 
f 144//144 121//121 145//145 
f 169//169 113//113 129//129 
f 129//129 51//51 169//169 
f 81//81 95//95 173//173 
f 173//173 169//169 81//81 
f 176//176 177//177 178//178 
s 2
f 179//179 180//180 181//181 
s 1
f 179//179 182//182 183//183 
s off
f 181//181 182//182 179//179 
s 1
f 178//178 184//184 185//185 
f 178//178 185//185 186//186 
f 187//187 179//179 183//183 
s 2
f 180//180 188//188 181//181 
s 1
f 184//184 187//187 183//183 
f 179//179 187//187 189//189 
f 177//177 188//188 180//180 
f 189//189 184//184 178//178 
f 186//186 176//176 178//178 
f 189//189 187//187 184//184 
f 180//180 189//189 178//178 
f 189//189 180//180 179//179 
f 177//177 190//190 188//188 
f 177//177 180//180 178//178 
s 2
f 191//191 192//192 193//193 
s 1
f 194//194 195//195 196//196 
s 4
f 197//197 198//198 199//199 
f 198//198 200//200 199//199 
f 201//201 195//195 202//202 
s 2
f 193//193 203//203 191//191 
s 1
f 204//204 205//205 206//206 
f 204//204 206//206 195//195 
f 195//195 194//194 204//204 
s 4
f 200//200 207//207 208//208 
f 208//208 199//199 200//200 
s 1
f 209//209 210//210 207//207 
f 207//207 198//198 209//209 
f 207//207 210//210 192//192 
f 192//192 191//191 207//207 
s 2
f 203//203 193//193 201//201 
s 1
f 197//197 206//206 205//205 
s 4
f 211//211 201//201 202//202 
s 1
f 210//210 212//212 213//213 
s 2
f 209//209 198//198 197//197 
s 4
f 199//199 208//208 206//206 
f 208//208 207//207 211//211 
f 211//211 202//202 208//208 
f 201//201 211//211 203//203 
s 1
f 210//210 209//209 212//212 
s 2
f 197//197 205//205 209//209 
s 4
f 199//199 206//206 197//197 
s 1
f 201//201 196//196 195//195 
s 4
f 207//207 200//200 198//198 
f 203//203 211//211 207//207 
f 207//207 191//191 203//203 
f 195//195 206//206 208//208 
f 208//208 202//202 195//195 
s 2
f 193//193 196//196 201//201 
# 0 polygons - 350 triangles

