# 3ds Max Wavefront OBJ Exporter v0.97b - (c)2007 guruware
# File Created: 02.08.2017 21:57:10

mtllib right_upper_arm.mtl

#
# object sub01
#

v  -10.4631 1.8197 -0.8573
v  -9.5774 3.4112 -0.5516
v  -10.0691 1.6623 -0.8890
v  -8.1315 5.6569 0.0860
v  -8.5777 5.7728 -0.2130
v  -7.7473 8.6486 0.4706
v  -7.3147 8.5219 0.7665
v  -8.9373 -0.1277 -0.8984
v  -9.4337 -0.2623 -0.6363
v  -9.4971 -0.1630 -0.8321
v  -10.2295 -0.0717 -0.1389
v  -10.1586 0.2984 -0.0454
v  -10.4940 0.0355 -0.2548
v  -6.6581 11.1489 2.1309
v  -6.1331 10.8910 1.8354
v  -6.6683 11.3208 1.9130
v  -6.4383 10.1550 1.8633
v  -6.7021 10.1678 2.0604
v  -6.8820 9.6729 1.5887
v  -9.2996 0.8346 -0.3791
v  -9.0764 1.0142 -0.5789
v  -9.0451 1.4408 -0.6379
v  -6.6206 10.8518 2.3117
v  -10.4628 1.8806 -0.7388
v  -10.8168 1.3954 -0.7691
v  -10.4089 1.2639 -0.5025
v  -10.2096 1.7184 -0.5157
v  -9.6211 0.5702 -0.3896
v  -9.2182 0.1297 -0.3937
v  -9.2404 0.6507 -0.3712
v  -9.3197 -0.1984 -0.5084
v  -8.0457 9.9057 1.3174
v  -7.9527 10.6899 1.0324
v  -7.6893 10.5286 0.8054
v  -8.0158 8.6834 0.5522
v  -8.2290 8.6751 0.9737
v  -8.5850 5.6463 0.7162
v  -7.8596 8.5011 1.4150
v  -8.8820 5.8152 0.3452
v  -10.9121 0.4939 -0.9330
v  -10.6364 0.3927 -1.0413
v  -10.7148 0.0260 -0.7098
v  -8.9581 0.1172 -0.4811
v  -8.8509 0.1214 -0.9326
v  -9.0275 0.7391 -0.8529
v  -9.0270 0.6703 -0.5489
v  -10.7294 0.7713 -0.1872
v  -10.8434 0.4233 0.1190
v  -6.6223 11.4093 1.6818
v  -6.9247 11.5188 1.5643
v  -10.5086 0.3623 -1.1051
v  -10.3949 0.7504 -1.0578
v  -10.1756 0.3594 -0.8701
v  -10.2248 0.2366 -0.8985
v  -6.7425 11.4451 1.0837
v  -6.1927 11.1836 1.3074
v  -6.5482 10.8507 0.5912
v  -11.1492 0.8452 -0.5861
v  -9.6913 -0.2850 -0.1718
v  -9.6342 0.1110 -0.0868
v  -8.9487 -0.0811 -0.9556
v  -9.7114 0.2295 -0.9551
v  -9.3711 0.5386 -0.9447
v  -7.3159 8.4411 1.1350
v  -8.3115 5.6164 0.5429
v  -8.1100 5.6187 0.3452
v  -9.3643 3.3137 -0.1587
v  -6.9847 10.1316 2.2724
v  -8.7836 5.8104 -0.0999
v  -10.6293 0.8343 -1.0567
v  -10.5188 1.1884 -1.0166
v  -11.0490 0.4719 -0.0180
v  -11.0336 0.0306 -0.1999
v  -7.1060 10.6596 0.6330
v  -6.9658 10.9991 0.5531
v  -9.4876 0.8009 -0.9027
v  -9.1206 1.0717 -0.8091
v  -6.0942 10.5827 0.9392
v  -6.4237 10.1722 0.8197
v  -6.7001 10.4896 0.6001
v  -7.5212 10.4980 1.9915
v  -7.2389 11.1033 2.1611
v  -7.9597 11.0401 1.6342
v  -10.7613 1.3793 -0.8883
v  -10.8364 0.9817 -0.9610
v  -11.2202 0.5448 -0.5457
v  -8.6728 3.2144 -0.3968
v  -9.6722 1.5542 -0.8707
v  -9.2095 3.3220 -0.6902
v  -8.6851 3.1722 -0.2333
v  -8.8613 3.1682 -0.0341
v  -9.9908 1.0413 -0.8907
v  -11.0303 0.6788 -0.2399
v  -11.0713 0.2244 -0.3354
v  -6.3773 11.3470 1.5005
v  -6.6861 11.5165 1.3811
v  -8.0282 10.5645 1.5324
v  -8.0082 11.0413 1.3260
v  -7.6051 10.9519 0.7383
v  -7.5548 11.3692 1.3441
v  -7.6271 9.8114 1.6984
v  -7.2151 9.6735 1.8710
v  -9.1256 1.4584 -0.7726
v  -9.5721 0.9195 -0.8726
v  -10.1129 -0.0002 -0.8065
v  -10.1126 -0.1641 -0.6278
v  -10.5566 -0.0617 -0.4780
v  -6.3054 10.0283 1.2363
v  -10.5914 -0.0678 -0.8134
v  -8.9157 -0.0731 -0.8191
v  -9.5782 0.8053 -0.2601
v  -6.0921 10.5517 1.8620
v  -10.3397 -0.1742 -0.4464
v  -10.3102 -0.1217 -0.6724
v  -10.9571 -0.0144 -0.5492
v  -10.8605 0.0098 -0.6437
v  -11.1838 0.3307 -0.6799
v  -7.1321 11.5021 1.5863
v  -7.4803 11.4382 1.5227
v  -7.2929 11.3403 1.9273
v  -9.9387 0.9706 -0.2782
v  -10.1128 0.6544 -0.2481
v  -9.5672 2.3688 -0.8164
v  -9.6057 1.5480 -0.1636
v  -9.1837 3.2150 0.1256
v  -7.5062 8.4331 1.3591
v  -7.5277 11.1450 2.1498
v  -7.4020 8.4179 1.2832
v  -9.6224 -0.3230 -1.0085
v  -9.8476 -0.1913 -0.8796
v  -9.3513 1.4667 -0.3090
v  -9.5738 -0.3072 -1.0861
v  -9.5095 0.0646 -1.2372
v  -9.7991 0.0488 -1.1121
v  -9.7720 -0.2701 -1.0008
v  -10.1862 0.0036 -1.1410
v  -10.1483 -0.1614 -1.0185
v  -9.6324 0.3455 -1.4925
v  -9.6277 -0.0753 -1.5892
v  -10.0268 0.1676 -1.7495
v  -9.9278 0.3129 -1.6589
v  -10.1237 0.4074 -1.0348
v  -10.5685 0.1542 -1.5154
v  -10.5783 0.0669 -1.2173
v  -10.6212 0.3694 -1.3090
v  -10.3579 0.2272 -1.6292
v  -10.3223 -0.1053 -1.7079
v  -9.5451 0.2224 -1.2667
v  -9.7728 0.1623 -1.1201
v  -9.7441 0.5905 -1.1189
v  -10.1843 0.1473 -1.7484
v  -10.0949 0.5988 -1.2580
v  -10.1753 0.3544 -1.6128
v  -10.0364 0.3764 -1.5979
v  -9.8722 0.6040 -1.3070
v  -10.4978 -0.1464 -1.5647
v  -9.5945 -0.3796 -1.1306
v  -9.3661 -0.4634 -0.8253
v  -10.2525 -0.0032 -0.7808
v  -10.3806 0.1063 -0.7258
v  -10.3076 0.1845 -0.5428
v  -10.8592 0.0685 -0.9471
v  -10.8866 -0.0635 -0.9243
v  -11.1146 -0.0429 -0.6608
v  -10.3116 -0.2822 -0.4301
v  -10.3236 -0.2234 -0.7229
v  -10.1894 -0.1438 -0.4893
v  -10.9533 -0.2222 -0.3177
v  -11.0899 0.0391 -0.2820
v  -11.0094 -0.2036 -0.5962
v  -11.0503 0.2175 -0.3346
v  -11.0419 0.1093 -0.6939
v  -10.5006 -0.0329 -0.9463
v  -10.7534 0.2256 -0.1823
v  -10.5488 0.0931 -0.8187
v  -10.7075 0.1067 -0.8268
v  -10.1434 0.0410 -0.5089
v  -10.3919 -0.3471 -0.6499
v  -10.7515 -0.0027 -0.0707
v  -10.4085 0.2020 -0.2090
v  -10.4455 0.2178 -0.2834
v  -10.4044 -0.0102 -0.1228
v  -6.6897 10.5730 0.5350
v  -6.6145 10.4418 0.7422
v  -6.2893 10.2674 1.0931
v  -6.6845 10.6914 0.4226
v  -6.6756 10.5388 0.4929
v  -6.6983 10.7255 0.4644
v  -6.5830 10.3563 0.6502
v  -6.4696 10.2491 0.7927
v  -6.5292 10.3451 0.8493
v  -6.4282 10.2840 0.9647
v  -6.3912 10.2058 0.8601
v  -6.2395 10.2085 1.0148
v  -6.5907 10.9510 0.3531
v  -6.6482 10.9399 0.4267
v  -6.5837 11.0673 0.4122
v  -6.5562 11.0381 0.3507
v  -6.5967 10.4093 0.3495
v  -6.4149 10.2175 0.6272
v  -6.4950 10.2562 0.5087
v  -6.5321 11.1170 0.4060
v  -6.5251 11.0770 0.3582
v  -6.0868 10.2949 1.1120
v  -6.1321 10.3299 1.1690
# 205 vertices

vn -0.4604 0.4764 -0.7491
vn -0.8495 0.3724 -0.3737
vn 0.0474 0.1227 -0.9913
vn 0.8447 -0.1017 -0.5255
vn 0.0779 0.1906 -0.9786
vn 0.1361 0.0810 -0.9874
vn 0.8191 -0.2756 -0.5031
vn 0.5619 -0.8044 -0.1930
vn 0.3526 -0.9064 -0.2325
vn 0.4831 -0.3984 -0.7797
vn -0.3045 -0.3540 0.8843
vn 0.1045 0.0940 0.9901
vn -0.1903 -0.7315 0.6548
vn 0.3072 0.6414 0.7030
vn 0.8493 0.3638 0.3825
vn 0.3248 0.8003 0.5040
vn 0.5864 -0.6264 0.5136
vn 0.5059 -0.5392 0.6733
vn 0.5877 -0.5550 0.5888
vn 0.5144 0.0876 0.8531
vn 0.9298 0.0958 0.3553
vn 0.9844 -0.1694 0.0467
vn 0.3086 0.1489 0.9395
vn -0.7954 0.5475 0.2600
vn -0.8323 0.5249 0.1783
vn -0.3268 0.3607 0.8735
vn -0.5142 0.1578 0.8430
vn 0.2174 -0.0326 0.9755
vn 0.4506 -0.2296 0.8627
vn 0.3780 0.0517 0.9244
vn 0.5879 -0.6055 0.5363
vn -0.9797 -0.0079 0.2002
vn -0.8548 0.0658 -0.5148
vn -0.5571 0.0348 -0.8297
vn -0.6132 0.2788 -0.7391
vn -0.9755 0.1738 0.1346
vn -0.2077 -0.2030 0.9569
vn -0.3650 -0.1337 0.9214
vn -0.9515 0.1770 0.2515
vn -0.5721 -0.1621 -0.8040
vn -0.4816 -0.2640 -0.8357
vn -0.4624 -0.7449 -0.4810
vn 0.6760 -0.3485 0.6493
vn 0.8405 0.0475 -0.5397
vn 0.7518 0.2713 -0.6010
vn 0.8848 0.1863 0.4272
vn -0.1119 0.6519 0.7500
vn -0.1279 0.0541 0.9903
vn 0.3453 0.8720 0.3469
vn 0.0034 0.9845 0.1753
vn 0.0256 -0.2620 -0.9647
vn 0.1867 0.0593 -0.9806
vn 0.1243 -0.2937 -0.9478
vn 0.4363 -0.2797 -0.8552
vn 0.1665 0.8684 -0.4671
vn 0.8010 0.5800 -0.1487
vn 0.4063 0.2463 -0.8799
vn -0.8896 0.4565 0.0135
vn 0.3718 -0.2458 0.8952
vn 0.3709 0.0696 0.9261
vn 0.3431 -0.4147 -0.8428
vn -0.0677 -0.0618 -0.9958
vn 0.0432 0.1289 -0.9907
vn 0.8858 -0.4295 0.1758
vn 0.5715 -0.3445 0.7448
vn 0.8991 -0.3140 0.3049
vn -0.8150 0.1356 0.5634
vn 0.0304 -0.4173 0.9083
vn -0.7286 0.3290 -0.6007
vn -0.2061 0.0835 -0.9750
vn -0.0473 0.1816 -0.9822
vn -0.7705 0.2386 0.5910
vn -0.6049 -0.6900 0.3975
vn -0.1665 -0.0157 -0.9859
vn -0.0477 0.3693 -0.9281
vn -0.0114 0.1893 -0.9819
vn 0.6711 0.1533 -0.7254
vn 0.8893 -0.0440 -0.4551
vn 0.6562 -0.3523 -0.6673
vn 0.2163 -0.0876 -0.9724
vn -0.5905 -0.0980 0.8011
vn -0.2027 0.1473 0.9681
vn -0.8136 0.3860 0.4348
vn -0.6257 0.3475 -0.6984
vn -0.5865 0.1800 -0.7897
vn -0.9977 0.0675 -0.0110
vn 0.8502 -0.1111 -0.5146
vn 0.1327 0.0508 -0.9898
vn 0.1112 0.1345 -0.9846
vn 0.8973 -0.2768 0.3439
vn 0.5721 -0.2978 0.7642
vn 0.1654 0.0831 -0.9827
vn -0.6657 0.5295 0.5257
vn -0.9669 -0.2209 0.1277
vn 0.7014 0.6680 0.2484
vn 0.2480 0.9656 -0.0788
vn -0.9298 -0.0520 0.3645
vn -0.8594 0.4806 -0.1747
vn -0.4564 0.3888 -0.8003
vn -0.4235 0.8591 -0.2875
vn -0.5817 -0.2222 0.7825
vn 0.0183 -0.5373 0.8432
vn 0.5580 0.0153 -0.8297
vn 0.0522 0.1183 -0.9916
vn -0.5162 -0.4203 -0.7462
vn -0.3027 -0.7392 -0.6016
vn -0.3073 -0.9342 0.1812
vn 0.8319 -0.5544 -0.0227
vn -0.3313 -0.7785 -0.5331
vn 0.7033 -0.6224 0.3436
vn 0.1641 -0.2180 0.9621
vn 0.8731 -0.2127 0.4386
vn -0.3692 -0.9198 0.1327
vn 0.0270 -0.8334 -0.5519
vn -0.5067 -0.8294 -0.2352
vn -0.2425 -0.7889 -0.5646
vn -0.8633 -0.2811 -0.4191
vn -0.1114 0.9858 0.1259
vn -0.3692 0.9289 0.0272
vn -0.1349 0.8578 0.4959
vn -0.2130 0.0938 0.9725
vn 0.1263 0.3236 0.9377
vn 0.0275 0.1328 -0.9908
vn -0.0486 -0.0688 0.9964
vn -0.2860 -0.1219 0.9504
vn 0.2954 -0.3412 0.8924
vn -0.4807 -0.0475 0.8756
vn 0.6648 -0.4279 0.6123
vn 0.3835 0.0305 -0.9230
vn -0.4662 -0.1422 -0.8732
vn 0.5749 -0.1679 0.8008
vn 0.9962 0.0644 0.0585
vn 0.9265 0.1312 0.3528
vn 0.2378 0.1629 0.9575
vn 0.2732 0.3376 0.9008
vn -0.1669 0.2793 0.9456
vn -0.0555 0.5086 0.8592
vn 0.7042 0.4670 -0.5348
vn 0.7645 -0.0310 -0.6439
vn 0.1496 0.1496 -0.9774
vn 0.2375 0.5241 -0.8179
vn -0.2189 0.2713 0.9373
vn -0.8221 0.1986 -0.5335
vn -0.7250 0.1331 0.6758
vn -0.8171 0.5681 0.0981
vn -0.4949 0.5036 -0.7081
vn -0.3634 -0.0389 -0.9308
vn 0.9158 0.2498 0.3145
vn 0.4090 -0.0302 0.9120
vn 0.4844 0.6930 0.5340
vn -0.1989 0.2061 -0.9581
vn -0.2918 0.9561 0.0284
vn -0.2614 0.7159 -0.6474
vn -0.0164 0.7561 -0.6543
vn 0.1734 0.9264 -0.3341
vn -0.8013 -0.0915 -0.5913
vn 0.9306 -0.0763 -0.3581
vn 0.8105 0.1206 -0.5732
vn 0.7351 0.1868 -0.6518
vn 0.2999 0.7976 -0.5233
vn 0.3770 0.9063 -0.1911
vn -0.2902 0.5128 -0.8080
vn -0.4971 -0.0465 -0.8665
vn -0.9824 0.0222 -0.1855
vn 0.7470 -0.6453 -0.1602
vn 0.7783 -0.4880 -0.3952
vn 0.9127 -0.4085 -0.0147
vn -0.7603 -0.4658 0.4528
vn -0.8480 -0.0259 0.5294
vn -0.8532 -0.5029 0.1383
vn -0.5799 0.7785 0.2401
vn -0.6141 0.6843 -0.3931
vn 0.3403 0.4756 -0.8112
vn -0.1189 0.8408 0.5282
vn 0.1530 0.8720 -0.4649
vn 0.0450 0.9565 -0.2883
vn 0.9656 0.2569 0.0411
vn 0.8284 -0.5416 -0.1427
vn -0.2361 0.2712 0.9331
vn 0.4285 0.7038 0.5666
vn 0.1249 0.9921 0.0097
vn 0.5031 0.2990 0.8108
vn -0.9571 -0.0194 0.2891
vn -0.8127 0.2184 0.5401
vn -0.4824 -0.2973 0.8239
vn -0.9465 -0.0647 -0.3163
vn -0.9366 -0.3199 -0.1426
vn -0.9861 0.0849 -0.1426
vn -0.8101 -0.5835 0.0582
vn -0.6532 -0.7475 0.1207
vn -0.8228 -0.2715 0.4993
vn -0.7009 -0.3277 0.6335
vn -0.5502 -0.7853 0.2840
vn -0.2318 -0.8320 0.5040
vn -0.7876 0.2529 -0.5618
vn -0.7951 0.1993 -0.5728
vn -0.7048 0.4510 -0.5476
vn -0.7279 0.4335 -0.5313
vn -0.8798 -0.4587 -0.1249
vn -0.6073 -0.7935 0.0390
vn -0.7211 -0.6916 0.0408
vn -0.6088 0.5623 -0.5597
vn -0.6042 0.5741 -0.5526
vn 0.0566 -0.8142 0.5779
vn -0.2161 -0.5100 0.8326
# 205 vertex normals

o sub01
g sub01
usemtl Bones___Vray01
s 1
f 1//1 2//2 3//3 
f 4//4 5//5 6//6 
f 6//6 7//7 4//4 
f 8//8 9//9 10//10 
s 2
f 11//11 12//12 13//13 
s 1
f 14//14 15//15 16//16 
f 17//17 18//18 19//19 
f 20//20 21//21 22//22 
f 15//15 14//14 23//23 
f 24//24 1//1 25//25 
f 24//24 25//25 26//26 
f 27//27 24//24 26//26 
f 28//28 29//29 30//30 
s 4
f 29//29 31//31 8//8 
s 1
f 32//32 33//33 34//34 
f 32//32 34//34 35//35 
f 35//35 36//36 32//32 
f 37//37 38//38 36//36 
f 36//36 39//39 37//37 
f 40//40 41//41 42//42 
f 43//43 44//44 45//45 
f 43//43 45//45 46//46 
f 47//47 48//48 12//12 
f 16//16 49//49 50//50 
f 51//51 52//52 53//53 
f 53//53 54//54 51//51 
f 55//55 56//56 57//57 
f 26//26 25//25 58//58 
s 2
f 11//11 59//59 60//60 
f 60//60 12//12 11//11 
s 1
f 61//61 62//62 63//63 
f 44//44 61//61 63//63 
f 64//64 65//65 66//66 
f 27//27 67//67 24//24 
f 18//18 23//23 68//68 
f 36//36 35//35 69//69 
f 70//70 71//71 52//52 
s off
f 48//48 72//72 73//73 
s 1
f 30//30 29//29 43//43 
f 74//74 75//75 57//57 
f 76//76 77//77 45//45 
f 76//76 45//45 63//63 
f 57//57 78//78 79//79 
f 80//80 57//57 79//79 
f 81//81 82//82 83//83 
f 71//71 84//84 1//1 
f 58//58 25//25 85//85 
f 58//58 85//85 40//40 
f 40//40 86//86 58//58 
f 5//5 69//69 35//35 
f 87//87 88//88 89//89 
f 67//67 1//1 24//24 
f 90//90 66//66 65//65 
f 90//90 65//65 91//91 
f 3//3 92//92 71//71 
s 4
f 93//93 94//94 72//72 
s 1
f 81//81 68//68 82//82 
f 95//95 56//56 55//55 
f 55//55 96//96 95//95 
f 97//97 83//83 98//98 
f 99//99 100//100 55//55 
f 75//75 99//99 55//55 
f 101//101 102//102 68//68 
f 103//103 104//104 88//88 
s 4
f 54//54 105//105 106//106 
s 2
f 107//107 13//13 73//73 
s 1
f 108//108 17//17 19//19 
f 6//6 35//35 74//74 
f 36//36 38//38 101//101 
s 2
f 107//107 42//42 109//109 
s 1
f 44//44 110//110 8//8 
f 111//111 28//28 30//30 
f 33//33 32//32 97//97 
f 112//112 23//23 18//18 
f 17//17 112//112 18//18 
f 40//40 85//85 70//70 
f 70//70 41//41 40//40 
s 2
f 113//113 107//107 109//109 
s 1
f 78//78 56//56 15//15 
f 103//103 22//22 21//21 
s 2
f 114//114 106//106 113//113 
f 42//42 107//107 115//115 
f 115//115 116//116 42//42 
s 1
f 6//6 80//80 79//79 
f 79//79 7//7 6//6 
f 87//87 103//103 88//88 
f 39//39 69//69 2//2 
f 61//61 10//10 62//62 
f 40//40 117//117 86//86 
s 4
f 86//86 117//117 94//94 
s 1
f 56//56 16//16 15//15 
s 2
f 113//113 11//11 13//13 
f 13//13 107//107 113//113 
s 1
f 55//55 100//100 118//118 
f 55//55 118//118 50//50 
f 55//55 50//50 96//96 
f 119//119 120//120 118//118 
f 46//46 45//45 77//77 
f 54//54 106//106 114//114 
s 4
f 115//115 94//94 117//117 
s 1
f 5//5 89//89 69//69 
f 89//89 2//2 69//69 
f 110//110 44//44 43//43 
f 40//40 116//116 117//117 
f 111//111 121//121 122//122 
f 78//78 15//15 112//112 
f 23//23 82//82 68//68 
f 101//101 81//81 97//97 
f 101//101 97//97 32//32 
f 16//16 120//120 14//14 
f 93//93 47//47 58//58 
f 3//3 123//123 88//88 
f 67//67 124//124 125//125 
f 90//90 22//22 87//87 
f 101//101 38//38 126//126 
f 63//63 45//45 44//44 
f 21//21 77//77 103//103 
f 112//112 17//17 108//108 
s 2
f 109//109 114//114 113//113 
s 1
f 46//46 21//21 20//20 
f 46//46 20//20 30//30 
f 78//78 112//112 108//108 
f 48//48 47//47 93//93 
f 93//93 72//72 48//48 
f 84//84 85//85 25//25 
f 105//105 54//54 53//53 
f 37//37 65//65 126//126 
f 64//64 7//7 79//79 
f 6//6 74//74 80//80 
f 37//37 39//39 67//67 
f 67//67 125//125 37//37 
s 4
f 110//110 43//43 29//29 
s 1
f 41//41 51//51 109//109 
s 2
f 73//73 13//13 48//48 
s 1
f 26//26 47//47 122//122 
f 95//95 49//49 16//16 
f 70//70 52//52 51//51 
f 100//100 119//119 118//118 
f 96//96 50//50 49//49 
f 88//88 104//104 92//92 
f 88//88 92//92 3//3 
f 63//63 62//62 76//76 
f 4//4 66//66 90//90 
f 4//4 7//7 66//66 
f 90//90 87//87 4//4 
f 14//14 127//127 82//82 
f 108//108 19//19 128//128 
f 6//6 5//5 35//35 
f 52//52 92//92 62//62 
f 3//3 71//71 1//1 
f 81//81 83//83 97//97 
f 99//99 98//98 100//100 
f 104//104 103//103 77//77 
f 99//99 33//33 98//98 
s off
f 127//127 83//83 82//82 
s 1
f 129//129 10//10 9//9 
f 104//104 76//76 62//62 
f 39//39 36//36 69//69 
f 128//128 19//19 102//102 
f 102//102 126//126 128//128 
f 34//34 74//74 35//35 
f 64//64 128//128 65//65 
f 62//62 92//92 104//104 
f 130//130 62//62 129//129 
f 58//58 47//47 26//26 
f 119//119 100//100 83//83 
f 119//119 83//83 127//127 
f 127//127 120//120 119//119 
f 104//104 77//77 76//76 
f 99//99 75//75 74//74 
f 74//74 34//34 99//99 
f 12//12 122//122 47//47 
s 4
f 60//60 59//59 31//31 
f 60//60 31//31 29//29 
s 1
f 52//52 62//62 53//53 
f 7//7 64//64 66//66 
f 128//128 64//64 108//108 
f 131//131 22//22 90//90 
f 91//91 131//131 90//90 
f 62//62 10//10 129//129 
f 28//28 60//60 29//29 
f 96//96 49//49 95//95 
f 98//98 83//83 100//100 
f 51//51 41//41 70//70 
f 56//56 95//95 16//16 
f 122//122 121//121 26//26 
s 2
f 12//12 48//48 13//13 
s 1
f 41//41 109//109 42//42 
f 10//10 61//61 8//8 
f 87//87 89//89 5//5 
f 5//5 4//4 87//87 
f 123//123 3//3 2//2 
f 2//2 89//89 123//123 
f 79//79 108//108 64//64 
f 126//126 38//38 37//37 
f 53//53 62//62 105//105 
f 131//131 91//91 124//124 
f 131//131 124//124 111//111 
f 20//20 131//131 111//111 
f 108//108 79//79 78//78 
f 1//1 84//84 25//25 
f 131//131 20//20 22//22 
f 112//112 15//15 23//23 
s 4
f 58//58 86//86 93//93 
f 110//110 29//29 8//8 
s 1
f 126//126 102//102 101//101 
f 22//22 103//103 87//87 
f 67//67 27//27 124//124 
s 4
f 73//73 94//94 115//115 
s 1
f 40//40 42//42 116//116 
f 124//124 121//121 111//111 
f 16//16 118//118 120//120 
f 50//50 118//118 16//16 
s 4
f 106//106 105//105 130//130 
s 1
f 57//57 75//75 55//55 
f 122//122 28//28 111//111 
s 4
f 8//8 31//31 9//9 
s 1
f 125//125 91//91 65//65 
f 65//65 37//37 125//125 
f 14//14 120//120 127//127 
f 125//125 124//124 91//91 
f 115//115 117//117 116//116 
f 71//71 92//92 52//52 
f 77//77 21//21 46//46 
f 43//43 46//46 30//30 
f 57//57 80//80 74//74 
f 85//85 84//84 71//71 
f 71//71 70//70 85//85 
f 78//78 57//57 56//56 
s 4
f 94//94 93//93 86//86 
s 1
f 12//12 60//60 28//28 
f 28//28 122//122 12//12 
f 130//130 105//105 62//62 
f 2//2 67//67 39//39 
f 88//88 123//123 89//89 
f 67//67 2//2 1//1 
f 65//65 128//128 126//126 
f 109//109 51//51 54//54 
f 54//54 114//114 109//109 
s 4
f 94//94 73//73 72//72 
s 1
f 121//121 124//124 27//27 
f 27//27 26//26 121//121 
f 102//102 19//19 18//18 
f 18//18 68//68 102//102 
f 98//98 33//33 97//97 
f 99//99 34//34 33//33 
f 68//68 81//81 101//101 
f 20//20 111//111 30//30 
f 8//8 61//61 44//44 
s 2
f 73//73 115//115 107//107 
s 1
f 36//36 101//101 32//32 
f 14//14 82//82 23//23 
f 132//132 133//133 134//134 
f 135//135 132//132 134//134 
f 134//134 136//136 137//137 
f 138//138 139//139 140//140 
f 140//140 141//141 138//138 
f 134//134 142//142 136//136 
f 143//143 144//144 145//145 
f 143//143 146//146 147//147 
f 134//134 148//148 149//149 
f 149//149 148//148 150//150 
f 133//133 139//139 138//138 
f 138//138 148//148 133//133 
f 151//151 147//147 146//146 
f 145//145 144//144 136//136 
f 134//134 137//137 135//135 
f 143//143 152//152 153//153 
f 146//146 143//143 153//153 
f 134//134 149//149 142//142 
f 138//138 150//150 148//148 
f 141//141 154//154 155//155 
f 147//147 156//156 143//143 
f 134//134 133//133 148//148 
f 142//142 145//145 136//136 
f 151//151 146//146 153//153 
s off
f 150//150 155//155 152//152 
s 1
f 147//147 140//140 139//139 
s 2
f 152//152 145//145 142//142 
s 1
f 138//138 155//155 150//150 
f 141//141 155//155 138//138 
f 152//152 143//143 145//145 
f 147//147 151//151 140//140 
s 2
f 152//152 142//142 150//150 
s 1
f 137//137 136//136 144//144 
f 156//156 144//144 143//143 
f 157//157 139//139 133//133 
f 157//157 133//133 132//132 
f 154//154 153//153 152//152 
f 154//154 152//152 155//155 
f 157//157 132//132 158//158 
f 140//140 151//151 153//153 
f 153//153 154//154 141//141 
f 153//153 141//141 140//140 
f 149//149 150//150 142//142 
s 2
f 159//159 160//160 161//161 
s 4
f 162//162 163//163 164//164 
s 1
f 165//165 166//166 167//167 
f 168//168 169//169 164//164 
f 164//164 170//170 168//168 
s 4
f 164//164 169//169 171//171 
f 164//164 171//171 172//172 
s 1
f 173//173 159//159 166//166 
s 2
f 174//174 175//175 176//176 
f 176//176 171//171 174//174 
f 172//172 176//176 162//162 
f 177//177 159//159 161//161 
s 1
f 167//167 166//166 159//159 
f 167//167 159//159 177//177 
f 165//165 178//178 166//166 
f 179//179 174//174 169//169 
f 179//179 169//169 168//168 
s 2
f 180//180 181//181 174//174 
f 176//176 172//172 171//171 
f 160//160 159//159 173//173 
f 173//173 175//175 160//160 
f 161//161 160//160 175//175 
s 4
f 177//177 180//180 182//182 
s 2
f 175//175 162//162 176//176 
f 175//175 174//174 161//161 
f 180//180 177//177 161//161 
f 161//161 181//181 180//180 
s 4
f 164//164 172//172 162//162 
f 182//182 167//167 177//177 
s 1
f 173//173 163//163 162//162 
s 2
f 175//175 173//173 162//162 
f 174//174 181//181 161//161 
s 1
f 174//174 179//179 182//182 
f 182//182 180//180 174//174 
f 174//174 171//171 169//169 
f 183//183 184//184 185//185 
f 186//186 187//187 183//183 
f 183//183 188//188 186//186 
f 189//189 190//190 191//191 
f 191//191 184//184 189//189 
f 192//192 193//193 194//194 
f 194//194 185//185 192//192 
f 195//195 196//196 197//197 
f 195//195 186//186 196//196 
f 197//197 198//198 195//195 
f 199//199 187//187 186//186 
f 200//200 190//190 189//189 
f 201//201 200//200 189//189 
f 193//193 190//190 200//200 
f 189//189 187//187 199//199 
f 199//199 201//201 189//189 
f 197//197 202//202 203//203 
f 203//203 198//198 197//197 
f 185//185 194//194 204//204 
f 204//204 205//205 185//185 
f 192//192 191//191 190//190 
f 193//193 192//192 190//190 
f 189//189 184//184 183//183 
f 189//189 183//183 187//187 
f 186//186 188//188 196//196 
f 192//192 185//185 184//184 
f 184//184 191//191 192//192 
f 205//205 188//188 183//183 
f 183//183 185//185 205//205 
# 0 polygons - 359 triangles

